<svg version="1.1" id="Layer_1" xmlns="http://www.w3.org/2000/svg" xmlns:xlink="http://www.w3.org/1999/xlink" x="0px" y="0px"
	 width="100%" viewBox="0 0 1024 1008" enable-background="new 0 0 1024 1008" xml:space="preserve">
<path fill="#000000" opacity="1.000000" stroke="none" 
	d="
M80.222092,920.824341 
	C68.616508,921.884521 64.755966,917.374023 67.206352,906.587341 
	C68.076187,902.758301 69.859497,899.368958 71.764854,896.141846 
	C89.628113,865.887085 110.628479,837.854187 132.711792,810.591553 
	C156.590149,781.112854 181.930252,752.898193 206.968704,724.421448 
	C231.575882,696.435059 256.147736,668.417725 280.803925,640.474609 
	C283.077850,637.897583 283.965851,635.072998 283.859833,631.797913 
	C281.810699,568.489746 283.206604,505.158264 282.556366,441.840820 
	C282.332245,420.014099 282.264221,398.181458 281.666748,376.364075 
	C281.024017,352.896454 280.287292,329.413788 278.715240,305.996521 
	C277.895508,293.785065 276.587616,281.437988 273.425873,269.564117 
	C270.976044,260.363708 268.025360,251.248413 263.095734,242.841995 
	C256.463806,231.532623 240.333145,226.870483 228.190582,229.644257 
	C191.666214,237.987671 163.131073,258.762543 138.386734,285.683014 
	C125.079689,300.160339 115.541351,317.113770 108.873474,335.461639 
	C103.640465,349.861206 99.110756,364.563507 95.998032,379.640472 
	C95.332253,382.865265 94.094719,386.021301 92.745956,389.041718 
	C91.445381,391.954224 88.675095,392.960541 85.667831,392.736542 
	C82.553619,392.504608 80.466156,390.702393 79.590813,387.633362 
	C78.876213,385.127899 79.242760,382.579163 79.912865,380.215576 
	C84.699699,363.331055 88.939697,346.251282 95.115639,329.817200 
	C108.366173,294.557770 131.269272,266.680756 161.587875,244.649170 
	C176.994278,233.453796 193.494446,224.260620 211.593781,218.311203 
	C223.033997,214.550705 234.953171,212.448776 246.986206,214.864624 
	C261.515717,217.781693 271.518341,227.013809 278.208130,239.800323 
	C285.378021,253.504471 288.425812,268.468933 290.618500,283.657867 
	C298.366760,337.330078 295.963684,391.354340 296.328217,445.281250 
	C296.662750,494.771790 296.855316,544.263367 297.213867,593.753662 
	C297.264496,600.740845 297.886414,607.724731 298.282166,614.707947 
	C298.354950,615.992371 298.178589,617.441467 299.897919,618.306763 
	C302.976959,617.325195 303.858093,614.873779 303.900360,611.825623 
	C304.325623,581.178528 306.862366,550.612244 306.975006,519.935425 
	C307.046967,500.336823 309.602448,480.805969 311.608246,461.281891 
	C312.662842,451.016937 314.037384,440.760040 316.120239,430.748871 
	C319.136292,416.252411 322.208618,401.652863 330.206238,388.599762 
	C335.963531,379.203094 347.374573,373.808868 358.023376,382.106750 
	C358.525299,382.497894 359.139557,382.744934 359.788208,383.107544 
	C364.118958,377.875427 364.106567,371.228027 365.862732,365.331207 
	C371.246521,347.253937 376.204773,329.030212 380.642731,310.697418 
	C384.035278,296.683167 387.978149,282.809967 390.953552,268.679504 
	C393.956390,254.418808 397.961273,240.371872 401.334717,226.185501 
	C403.674622,216.345306 405.787445,206.447922 407.824829,196.539703 
	C410.797882,182.081055 414.145355,167.669266 416.319702,153.086380 
	C417.960083,142.084991 419.935638,131.112625 420.854767,119.974045 
	C421.730103,109.366661 423.206421,98.828133 423.107361,88.135338 
	C423.067749,83.855431 424.965851,80.299675 429.864166,79.603195 
	C434.805695,78.900574 437.387939,80.779549 437.285553,85.743431 
	C437.021820,98.534340 437.439545,111.284958 435.253082,124.093521 
	C433.587097,133.852966 432.383301,143.785522 431.050049,153.647110 
	C429.964935,161.673096 428.133606,169.607574 426.417999,177.536072 
	C424.983582,184.164993 423.782715,190.863663 422.552856,197.504654 
	C421.284149,204.355316 419.438690,211.069901 418.177002,217.919083 
	C415.935028,230.089615 412.969757,242.134598 410.055725,254.171249 
	C407.568451,264.445190 404.337616,274.552887 402.199371,284.892090 
	C401.025726,290.566986 399.007416,296.032532 398.268250,301.776672 
	C397.649841,306.582581 395.703522,311.017670 394.542358,315.671143 
	C390.382233,332.343018 385.290161,348.779968 380.934418,365.406342 
	C378.085663,376.280396 375.197845,387.132629 371.788239,397.842621 
	C369.892090,403.798828 373.978546,408.353607 375.633270,413.375641 
	C378.371613,421.686188 381.345856,429.909821 383.290375,438.455658 
	C384.276184,442.787933 385.549866,447.104065 386.791168,451.300659 
	C391.161530,466.075714 393.739563,481.259399 397.531403,496.155731 
	C399.094849,502.297607 401.405029,508.394623 401.651489,515.197144 
	C405.037781,514.364075 406.499756,511.736542 408.444092,509.865753 
	C413.243805,505.247589 417.854675,500.433044 422.536804,495.692841 
	C424.448608,493.757324 425.366302,491.512848 425.996399,488.754242 
	C435.495209,447.167816 451.913025,409.566986 487.890747,383.562164 
	C498.263092,376.064941 509.430511,370.175201 521.724854,366.195770 
	C529.482910,363.684631 537.098450,361.051758 545.286804,360.583221 
	C549.395874,360.348114 551.814453,357.555206 554.243225,354.801575 
	C576.028259,330.102783 597.644714,305.253357 619.599548,280.706604 
	C660.298462,235.202927 701.234131,189.911072 741.985291,144.453964 
	C759.966370,124.396423 777.731689,104.145363 795.613586,83.998718 
	C797.380859,82.007698 799.042175,79.800507 801.172485,78.283051 
	C804.242493,76.096329 807.734070,75.670441 810.707886,78.634796 
	C813.606995,81.524704 814.616089,84.589485 811.556580,88.285728 
	C798.714294,103.800728 785.014221,118.554787 771.589905,133.551193 
	C744.852478,163.419846 718.028503,193.211212 691.188293,222.987671 
	C652.202271,266.238586 613.477112,309.720978 575.177124,353.580719 
	C573.827942,355.125763 571.772583,356.370758 571.785522,358.856995 
	C573.044312,360.673523 574.983948,360.444458 576.753662,360.706116 
	C596.384399,363.608795 613.469238,371.837067 627.559082,385.795898 
	C640.205933,398.325073 647.467529,413.860077 652.789185,430.746155 
	C657.766663,446.539948 658.502930,462.918884 661.761475,479.345154 
	C665.862183,468.118011 669.825806,457.134766 673.884277,446.186676 
	C679.519592,430.985199 685.223755,415.809296 690.902771,400.624054 
	C695.306091,388.849976 699.613708,377.038757 704.157104,365.318909 
	C707.441650,356.846222 711.031311,348.491455 714.506592,340.093079 
	C718.927002,329.410583 723.338867,318.724396 727.810364,308.063263 
	C732.281921,297.402130 736.841858,286.778137 741.327942,276.123047 
	C746.888306,262.916321 752.384338,249.682495 757.961121,236.482712 
	C762.517334,225.698364 767.270264,214.995728 771.717346,204.167068 
	C776.285645,193.043350 780.536987,181.789932 785.022644,170.631714 
	C789.514404,159.458206 794.266113,148.387497 798.638428,137.168243 
	C802.232971,127.944870 805.416382,118.561798 808.823608,109.264740 
	C811.436340,102.135536 814.195679,95.059052 816.728088,87.901863 
	C817.994751,84.322159 818.876282,80.634148 820.507324,77.148445 
	C822.196716,73.537872 825.049011,72.966805 828.347046,73.452423 
	C831.831238,73.965446 833.961487,75.949829 834.332397,79.729294 
	C834.766785,84.154968 832.366455,87.821632 831.055542,91.648598 
	C825.905212,106.684357 820.176147,121.522964 814.595093,136.409683 
	C810.232117,148.047394 805.896057,159.697845 801.319031,171.251892 
	C796.135071,184.337997 790.718872,197.332397 785.361023,210.349152 
	C779.884460,223.654373 774.415222,236.963196 768.831482,250.223557 
	C764.467102,260.588196 759.883362,270.860229 755.487122,281.211639 
	C750.900696,292.010925 746.460266,302.872162 741.885376,313.676392 
	C737.307495,324.487640 732.504028,335.205261 728.053955,346.068176 
	C723.544983,357.074707 719.319519,368.198029 715.022583,379.290588 
	C711.620239,388.073669 708.251892,396.870544 704.951355,405.692322 
	C701.254333,415.573883 697.705627,425.511047 693.990479,435.385712 
	C690.445129,444.808838 686.461304,454.078735 683.238708,463.608246 
	C680.168518,472.686920 676.462097,481.510193 673.297729,490.536743 
	C672.482727,492.861450 671.247803,494.997803 670.007812,498.730927 
	C675.670776,493.371704 677.231750,487.188721 680.083923,481.858154 
	C683.680176,475.137054 687.209717,468.364105 689.991333,461.216614 
	C691.349670,457.726318 693.806396,454.831787 698.249390,455.263031 
	C701.978638,455.625000 704.045532,458.341095 704.511475,461.485382 
	C705.047974,465.106232 703.103699,468.550354 701.735962,471.907684 
	C700.388489,475.215332 698.803894,478.426361 697.141785,482.078735 
	C700.047791,482.391937 701.696411,480.691162 703.341248,479.654785 
	C725.950806,465.409210 749.009277,451.916382 771.950195,438.220032 
	C792.577271,425.905029 813.256592,413.692596 835.137817,403.773743 
	C846.836304,398.470764 858.922485,394.029205 871.289551,390.224976 
	C880.303772,387.452179 889.401611,384.915039 898.498535,382.622467 
	C913.190002,378.919952 928.310486,377.345612 943.473999,378.966583 
	C949.401978,379.600342 957.340881,385.252899 957.691162,392.825714 
	C958.113525,401.955872 956.226990,410.215515 952.480774,418.265228 
	C931.506348,463.333832 898.331543,498.306824 860.341797,529.230896 
	C837.227722,548.045959 812.815735,565.032837 787.657837,581.033020 
	C765.749939,594.966309 743.117737,607.515259 719.651062,618.509888 
	C703.764038,625.953369 687.540283,632.635620 670.795288,638.119995 
	C658.812683,642.044617 646.589294,645.018311 634.572815,648.750732 
	C633.164734,649.188110 631.621094,649.220093 630.132935,649.362976 
	C618.916748,650.439575 616.507080,652.688599 613.488159,663.194946 
	C609.979370,675.406189 605.921448,687.458679 602.316711,699.643555 
	C598.753723,711.687134 595.503845,723.822937 592.030884,735.893677 
	C589.519165,744.623291 586.717712,753.271667 584.319153,762.031250 
	C581.785339,771.284729 579.594849,780.631836 577.219849,789.929260 
	C574.965393,798.755127 572.617188,807.557373 570.399231,816.392395 
	C567.694580,827.165833 564.927002,837.927124 562.467590,848.757446 
	C558.793457,864.937439 555.283203,881.156006 551.869202,897.393005 
	C550.370239,904.521851 549.641846,911.824951 547.918213,918.891479 
	C545.437134,929.063293 545.097290,939.611633 542.065918,949.678345 
	C540.920349,953.482605 538.445007,954.601074 534.950256,954.457153 
	C531.232910,954.304016 528.463379,952.816040 527.954285,948.752014 
	C527.769470,947.276672 527.684265,945.715820 527.953735,944.268494 
	C529.467651,936.136292 531.153259,928.036133 532.682983,919.906677 
	C533.999390,912.911011 535.032471,905.879517 536.589355,898.907532 
	C538.424805,890.687805 540.175903,882.412781 541.635925,874.123901 
	C542.814636,867.431824 545.181396,861.040527 545.905701,854.252502 
	C546.466797,848.994568 548.171387,843.862549 549.538025,838.814941 
	C552.216003,828.923584 554.622925,818.930298 557.055542,809.007385 
	C560.319519,795.693237 563.756409,782.404480 567.301453,769.179565 
	C570.716064,756.441345 574.024231,743.648804 577.879944,731.000916 
	C581.436340,719.335022 584.809387,707.555786 588.020508,695.756714 
	C590.972412,684.910400 594.792908,674.300781 598.212036,663.580933 
	C598.666077,662.157532 599.036804,660.705811 599.398376,659.255310 
	C600.080200,656.520020 599.125366,655.135437 596.167847,655.166626 
	C586.502747,655.268494 576.815857,654.940857 567.179443,655.501831 
	C561.739319,655.818542 557.836914,660.291321 553.359009,663.002014 
	C539.072083,671.650818 523.712952,677.511658 507.195312,678.874695 
	C486.495361,680.582764 468.305939,673.351013 452.965057,659.481506 
	C449.383636,656.243652 446.889343,656.183411 443.098755,658.809814 
	C402.235626,687.123779 362.105560,716.445007 322.262848,746.169556 
	C318.853271,748.713318 316.936523,751.403748 317.285492,755.708008 
	C317.900757,763.297058 315.809906,770.585388 314.459259,777.933105 
	C313.487366,783.220459 309.482422,786.863647 305.180389,787.007141 
	C300.697815,787.156616 296.212891,783.452332 294.772034,778.421204 
	C294.453278,777.308289 294.226135,776.146729 293.739380,775.109558 
	C293.040802,773.621094 292.142609,772.226196 291.100067,770.386169 
	C283.296051,774.567322 276.877045,780.392883 269.974121,785.462341 
	C240.492981,807.113159 211.245239,829.081970 181.738129,850.696899 
	C157.072647,868.765259 132.257660,886.633667 107.313530,904.315002 
	C98.804398,910.346619 90.276535,916.482117 80.222092,920.824341 
M574.327881,375.029877 
	C571.507996,374.793335 568.666504,374.703094 565.872620,374.290375 
	C559.708923,373.379822 555.159058,375.522583 551.114807,380.336670 
	C543.307129,389.630554 535.133728,398.627563 526.892334,407.544708 
	C499.795471,436.863708 472.878174,466.359314 444.284698,494.248932 
	C439.424438,498.989563 437.254242,504.473358 437.139496,511.164703 
	C436.945435,522.480957 436.840363,533.786377 436.993011,545.109070 
	C437.125061,554.902832 439.419128,564.085754 442.398926,573.252380 
	C448.433441,591.816101 460.491486,605.369873 476.845703,615.549316 
	C479.054810,616.924438 480.440399,617.010132 482.560242,615.651794 
	C491.487762,609.931641 500.584747,604.476013 509.511688,598.754883 
	C534.906494,582.479980 561.077576,567.484009 586.777893,551.713806 
	C605.593323,540.168335 624.306580,528.455444 643.183167,517.011475 
	C646.255432,515.148926 646.886963,512.892151 646.950134,509.651215 
	C647.458496,483.584869 645.776306,457.775055 637.938782,432.712952 
	C633.946777,419.947662 628.214539,408.057922 618.980896,398.117584 
	C607.078796,385.304474 591.885681,378.792389 574.327881,375.029877 
M793.927002,559.407715 
	C799.718689,555.532410 805.642395,551.839172 811.280640,547.752136 
	C847.963623,521.161865 883.761353,493.598877 911.393616,456.994415 
	C923.837463,440.510040 934.897278,423.255432 942.305481,403.877106 
	C945.400757,395.780640 943.224792,392.721771 934.523743,392.919006 
	C912.707153,393.413483 891.922119,399.303650 871.338989,405.757568 
	C854.741455,410.961792 838.720276,417.817993 823.311890,425.892426 
	C796.570618,439.905457 771.010376,455.992096 745.041870,471.351593 
	C725.908081,482.668579 707.156250,494.630676 688.206848,506.260773 
	C683.917297,508.893494 680.162109,511.771973 677.759949,516.534058 
	C674.785339,522.431091 670.984619,527.911011 667.547974,533.575562 
	C662.885925,541.260071 657.789062,548.937744 658.361206,558.387390 
	C659.154846,571.495850 655.645447,584.171509 655.124878,597.129089 
	C654.978943,600.759094 652.382690,602.830444 649.343079,603.935059 
	C646.139587,605.099243 643.991516,602.649780 642.125366,600.582520 
	C640.453857,598.730835 641.007019,596.182007 640.856323,593.867493 
	C640.629089,590.376343 642.213074,586.877625 641.061584,581.960083 
	C634.769958,600.215698 628.630310,616.984802 623.806335,634.157837 
	C625.991943,635.346924 627.798035,635.013062 629.495056,634.309631 
	C634.885071,632.075623 640.718872,631.531189 646.293518,629.984253 
	C657.289856,626.932861 668.137512,623.437378 678.806763,619.529053 
	C689.610413,615.571411 700.201416,610.983032 710.707214,606.190613 
	C724.258728,600.008789 737.408386,593.124634 750.467957,586.015198 
	C765.197510,577.996704 779.323547,568.993042 793.927002,559.407715 
M398.689728,562.895081 
	C395.693542,557.930176 396.973511,551.375061 392.754456,546.570435 
	C391.683716,547.361511 390.675598,547.936707 389.874481,548.722900 
	C367.816254,570.368103 345.856659,592.111023 324.298401,614.258484 
	C320.763702,617.889771 319.357483,621.971924 319.297699,626.815063 
	C318.897217,659.271484 318.467041,691.727539 318.090790,724.184265 
	C318.072632,725.751892 317.565063,727.518677 319.752228,729.566467 
	C358.366821,700.708008 397.389099,672.199280 437.841187,644.940674 
	C427.266388,631.795959 419.212433,618.109192 412.760834,603.502258 
	C407.067322,590.611755 402.027313,577.473633 398.689728,562.895081 
M221.336700,802.838745 
	C242.546875,787.075012 263.716370,771.255920 285.014954,755.612671 
	C287.911987,753.484802 288.977051,751.197388 288.943817,747.683777 
	C288.682556,720.048279 284.600098,692.570618 285.547791,664.884766 
	C285.604370,663.231628 285.854156,661.156860 283.878967,660.142090 
	C282.485565,660.379333 281.811035,661.326111 281.035583,662.212402 
	C261.767609,684.234741 242.441071,706.205994 223.210556,728.260986 
	C199.067627,755.949768 174.714737,783.463013 150.989670,811.506470 
	C131.244095,834.846130 113.114983,859.466858 96.231270,884.978516 
	C93.533310,889.055237 90.710640,893.058899 88.646034,897.893799 
	C89.533058,897.740784 90.096878,897.803528 90.448349,897.559937 
	C104.499908,887.818115 118.636673,878.194458 132.536560,868.240112 
	C145.489136,858.964172 158.175781,849.317444 170.999985,839.861755 
	C187.572540,827.642212 204.165375,815.450195 221.336700,802.838745 
M625.690918,571.179626 
	C633.475769,561.201233 636.966003,549.356812 641.162537,536.077698 
	C592.214966,566.257568 543.566467,594.204163 496.601227,625.156677 
	C507.338837,630.214111 518.018677,633.313232 528.963379,635.927979 
	C537.440918,637.953308 546.091248,638.040100 554.492554,639.870239 
	C558.132507,640.663208 561.051514,640.095154 563.835083,638.094482 
	C566.530518,636.157043 569.133789,634.068237 571.623230,631.871094 
	C591.899719,613.975647 609.243530,593.454651 625.690918,571.179626 
M384.639008,506.703003 
	C378.821625,480.480774 373.026367,454.252838 365.280273,428.617950 
	C363.091400,428.888275 362.746399,430.037964 362.453613,431.166351 
	C357.560364,450.027069 352.463013,468.839447 347.949463,487.790833 
	C346.800232,492.616150 345.135925,497.351196 344.451965,502.262238 
	C342.873596,513.595032 339.418427,524.518066 337.449615,535.781433 
	C335.974152,544.222229 333.559235,552.510925 332.041962,560.997986 
	C330.996155,566.847595 330.333130,573.677124 322.008636,574.455017 
	C320.896088,574.558960 320.334808,575.568665 320.328918,576.642029 
	C320.293884,583.019897 320.311615,589.398193 320.311615,596.774353 
	C325.868164,591.291748 330.550262,586.660461 335.244904,582.041931 
	C352.054016,565.505310 368.882965,548.988708 385.659210,532.418762 
	C387.710510,530.392761 390.262909,528.641174 389.137177,524.855103 
	C387.440735,519.149780 386.171295,513.317444 384.639008,506.703003 
M329.246918,442.473297 
	C326.290100,456.836304 325.429413,471.466156 323.925964,486.001831 
	C322.677704,498.070160 322.848175,510.243469 321.374542,522.341431 
	C320.623657,528.505859 319.410645,534.931091 320.962189,542.124390 
	C324.500427,525.367188 327.591522,509.469421 331.339813,493.728210 
	C332.491577,488.891296 333.339600,483.985321 334.621155,479.184296 
	C337.224457,469.431763 339.911072,459.701416 342.567810,449.963135 
	C345.220337,440.240417 348.115540,430.575592 350.445496,420.776306 
	C351.858795,414.832306 355.195190,409.278595 354.631683,402.942688 
	C354.234100,398.472626 351.591400,394.748535 347.534302,393.527100 
	C343.802185,392.403442 342.465820,396.415314 341.066010,399.192413 
	C334.338165,412.539551 331.546112,426.988617 329.246918,442.473297 
M517.900940,383.424164 
	C484.536438,397.848236 449.482483,440.631073 446.992615,470.818176 
	C475.807220,440.922791 504.046814,411.516235 531.479919,379.684143 
	C525.853027,379.961884 522.210571,381.471649 517.900940,383.424164 
M445.973572,631.569885 
	C447.537415,633.426819 449.058289,636.731689 451.674805,635.362000 
	C456.360443,632.908936 461.413177,630.576721 465.136627,625.442932 
	C427.596741,599.541565 419.622345,561.571472 421.262756,519.245178 
	C416.792694,521.572998 414.354675,525.261719 411.008575,527.833557 
	C407.804688,530.296082 406.257050,533.414734 407.215546,537.406738 
	C409.407074,546.534058 411.229584,555.792053 414.122559,564.697876 
	C417.425018,574.864441 420.654053,585.088318 425.009857,594.906311 
	C430.656555,607.633972 436.976959,619.945190 445.973572,631.569885 
M496.122803,663.218872 
	C511.561707,665.060974 525.562378,661.041931 538.646973,653.130798 
	C536.108643,652.383179 533.568848,652.512756 531.230591,651.888062 
	C516.558105,647.967712 501.654236,644.814087 487.907532,637.879028 
	C485.332001,636.579712 482.206512,633.751587 479.111633,635.488098 
	C472.999115,638.917786 467.263153,643.018616 460.816986,647.201721 
	C471.313507,656.335876 481.842651,662.770142 496.122803,663.218872 
M606.650879,618.173157 
	C599.984802,624.999634 593.318787,631.826111 586.540771,638.767212 
	C588.988342,640.729858 591.139465,639.459656 593.188354,639.562988 
	C602.340759,640.024292 608.658142,636.915283 610.255432,626.972717 
	C611.114563,621.624573 614.303528,616.769470 614.563171,610.319946 
	C611.580933,613.254395 609.354065,615.445618 606.650879,618.173157 
M303.999542,641.371826 
	C303.776520,640.344971 304.440430,638.966309 302.877655,638.458618 
	C299.332428,641.599915 299.294464,641.632812 299.282806,646.581360 
	C299.219543,673.382324 301.841125,700.066589 302.827850,726.822510 
	C302.873108,728.048706 302.350372,729.528564 304.011780,731.027710 
	C304.011780,701.095154 304.011780,671.639099 303.999542,641.371826 
z"/>
</svg>